<svg xmlns="http://www.w3.org/2000/svg" viewBox="-50 -50 612 612"><circle r="306" cx="256" cy="256" fill="#ff7979"/>
<path d="M331.472 280.087l-42.833 42.834v46.297l65.981-65.982c6.392-6.394 6.392-16.757-.002-23.148-6.391-6.392-16.755-6.392-23.146-.001z" fill="#875e4c"/><path d="M354.62 281.174l-65.981 65.982v22.061l65.981-65.982c6.217-6.219 6.368-16.182.49-22.604-.165.181-.315.368-.49.543z" fill="#99654b"/><path d="M256.901 245.11v259.656h32.739V246.058c-10.899 2.502-22.071 2.169-32.739-.948z" fill="#875e4c"/><path d="M273.271 247.686v257.079h16.369V246.058a64.346 64.346 0 0 1-16.369 1.628z" fill="#99654b"/><path d="M377.678 131.215C385.526 65.1 333.893 7.766 268.156 7.766c-56.862 0-103.668 43.028-109.653 98.298-34.494-.3-61.818 27.475-61.818 61.149 0 33.779 27.385 61.164 61.165 61.164h71.063c25.419 25.805 66.957 25.785 92.354 0h46.794c27.092 0 49.055-21.962 49.055-49.055-.001-23.801-16.952-43.636-39.438-48.107z" fill="#cde06e"/><path d="M158.504 106.064c-34.494-.3-61.818 27.475-61.818 61.149 0 32.224 24.926 58.609 56.545 60.973-24.691-37.331-1.983-87.954 42.398-94.236l-.014-.01c4.353-.469 9.328-4.004 10.774-10.12 12.426-62.785 76.404-102.659 139.126-84.368-65.26-64.22-177.081-25.116-187.011 66.612z" fill="#a8d855"/><path d="M233.955 443.223c0-8.943-7.25-16.193-16.194-16.193h-94.944c-8.942 0-16.192 7.25-16.192 16.193 0 8.943 7.25 16.193 16.192 16.193h94.944c8.944.001 16.194-7.25 16.194-16.193z" fill="#67a1f6"/><path d="M217.76 443.223h-94.943c-5.989 0-11.207-3.261-14.008-8.098-6.241 10.774 1.555 24.29 14.008 24.29h94.944c12.43 0 20.263-13.495 14.01-24.29-2.802 4.838-8.02 8.098-14.011 8.098z" fill="#4c86f5"/><path d="M384.819 125.321c2.106-33.038-9.564-65.152-32.619-89.138a7.501 7.501 0 0 0-10.815 10.395c22.009 22.898 31.503 53.517 27.945 83.488a7.5 7.5 0 0 0 5.984 8.241c19.353 3.848 33.399 20.985 33.399 40.749 0 22.913-18.641 41.555-41.555 41.555h-46.794a7.503 7.503 0 0 0-5.344 2.237c-22.365 22.709-59.115 22.894-81.666 0a7.496 7.496 0 0 0-5.343-2.237c-72.322 0-79.1 2.142-94.608-5.453-17.819-8.738-30.119-27.062-30.119-48.21 0-29.591 24.073-53.664 53.631-53.664l.112.004c.169.006.337.011.507.013h.068a7.502 7.502 0 0 0 7.456-6.692c8.312-76.778 94.7-116.289 158.128-75.072a7.5 7.5 0 1 0 8.175-12.579C312.278 6.555 290.111 0 267.255 0c-58.094 0-106.96 41.923-116.232 98.534-35.097 3.016-62.739 32.547-62.739 68.412 0 25.171 13.622 47.208 33.873 59.163v193.155h-.241c-13.064 0-23.692 10.629-23.692 23.693s10.629 23.693 23.692 23.693h94.944c13.065 0 23.694-10.629 23.694-23.693 0-12.717-10.19-23.693-23.934-23.693V235.611h8.35a71.938 71.938 0 0 0 23.529 14.653v246.735h-79.11c-4.142 0-7.5 3.357-7.5 7.5s3.358 7.5 7.5 7.5h146.376c4.143 0 7.5-3.357 7.5-7.5s-3.357-7.5-7.5-7.5H296.24V431.82c0-4.143-3.357-7.5-7.5-7.5a7.499 7.499 0 0 0-7.5 7.5v65.179h-17.738V254.166a74.23 74.23 0 0 0 17.738.447v153.871c0 4.143 3.357 7.5 7.5 7.5s7.5-3.357 7.5-7.5v-37.425l63.784-63.786c14.979-14.983 4.317-40.746-16.879-40.746a23.715 23.715 0 0 0-16.877 6.99l-30.028 30.029v-52.017c10.029-3.198 19.281-8.573 27.17-15.919h43.751c31.185 0 56.555-25.371 56.555-56.555-.001-24.603-16.002-46.217-38.897-53.734zM225.554 442.958c0 4.793-3.9 8.693-8.694 8.693h-94.944c-4.792 0-8.692-3.899-8.692-8.693 0-4.793 3.899-8.693 8.692-8.693h94.944c4.793-.001 8.694 3.9 8.694 8.693zm-23.935-23.695h-64.461V232.714c12.756 3.854 20.131 2.896 64.461 2.896v183.653zm135.257-135.139a8.86 8.86 0 0 1 12.539.001c3.458 3.457 3.458 9.084.001 12.541l-53.176 53.178v-25.083l40.636-40.637z"/></svg>