<?xml version="1.0" encoding="iso-8859-1"?>
<!-- Generator: Adobe Illustrator 19.0.0, SVG Export Plug-In . SVG Version: 6.00 Build 0)  -->
<svg version="1.1" id="Layer_1" xmlns="http://www.w3.org/2000/svg" xmlns:xlink="http://www.w3.org/1999/xlink" x="0px" y="0px"
	 viewBox="0 0 512 512" style="enable-background:new 0 0 512 512;" xml:space="preserve">
<path style="fill:#875E4C;" d="M331.472,280.087l-42.833,42.834v46.297l65.981-65.982c6.392-6.394,6.392-16.757-0.002-23.148
	C348.227,273.696,337.863,273.696,331.472,280.087z"/>
<path style="fill:#99654B;" d="M354.62,281.174l-65.981,65.982v22.061l65.981-65.982c6.217-6.219,6.368-16.182,0.49-22.604
	C354.945,280.812,354.795,280.999,354.62,281.174z"/>
<path style="fill:#875E4C;" d="M256.901,245.11v259.656h32.739V246.058C278.741,248.56,267.569,248.227,256.901,245.11z"/>
<path style="fill:#99654B;" d="M273.271,247.686v257.079h16.369V246.058C283.997,247.353,278.632,247.833,273.271,247.686z"/>
<path style="fill:#CDE06E;" d="M377.678,131.215C385.526,65.1,333.893,7.766,268.156,7.766c-56.862,0-103.668,43.028-109.653,98.298
	c-34.494-0.3-61.818,27.475-61.818,61.149c0,33.779,27.385,61.164,61.165,61.164c8.821,0,63.907,0,71.063,0
	c25.419,25.805,66.957,25.785,92.354,0c20.646,0,24.809,0,46.794,0c27.092,0,49.055-21.962,49.055-49.055
	C417.115,155.521,400.164,135.686,377.678,131.215z"/>
<path style="fill:#A8D855;" d="M158.504,106.064c-34.494-0.3-61.818,27.475-61.818,61.149c0,32.224,24.926,58.609,56.545,60.973
	c-24.691-37.331-1.983-87.954,42.398-94.236l-0.014-0.01c4.353-0.469,9.328-4.004,10.774-10.12
	c12.426-62.785,76.404-102.659,139.126-84.368C280.255-24.768,168.434,14.336,158.504,106.064z"/>
<path style="fill:#67A1F6;" d="M233.955,443.223c0-8.943-7.25-16.193-16.194-16.193h-94.944c-8.942,0-16.192,7.25-16.192,16.193
	c0,8.943,7.25,16.193,16.192,16.193h94.944C226.705,459.417,233.955,452.166,233.955,443.223z"/>
<path style="fill:#4C86F5;" d="M217.76,443.223h-94.943c-5.989,0-11.207-3.261-14.008-8.098c-6.241,10.774,1.555,24.29,14.008,24.29
	h94.944c12.43,0,20.263-13.495,14.01-24.29C228.969,439.963,223.751,443.223,217.76,443.223z"/>
<path d="M384.819,125.321c2.106-33.038-9.564-65.152-32.619-89.138c-2.87-2.986-7.618-3.08-10.605-0.21
	c-2.986,2.87-3.08,7.618-0.21,10.605c22.009,22.898,31.503,53.517,27.945,83.488c-0.462,3.888,2.144,7.477,5.984,8.241
	c19.353,3.848,33.399,20.985,33.399,40.749c0,22.913-18.641,41.555-41.555,41.555h-46.794c-2.009,0-3.934,0.806-5.344,2.237
	c-22.365,22.709-59.115,22.894-81.666,0c-1.41-1.432-3.334-2.237-5.343-2.237c-72.322,0-79.1,2.142-94.608-5.453
	c-17.819-8.738-30.119-27.062-30.119-48.21c0-29.591,24.073-53.664,53.631-53.664l0.112,0.004c0.169,0.006,0.337,0.011,0.507,0.013
	c0.023,0,0.045,0,0.068,0c3.825,0,7.043-2.883,7.456-6.692c8.312-76.778,94.7-116.289,158.128-75.072
	c3.475,2.258,8.12,1.271,10.377-2.202c2.257-3.474,1.271-8.119-2.202-10.377C312.278,6.555,290.111,0,267.255,0
	c-58.094,0-106.96,41.923-116.232,98.534c-35.097,3.016-62.739,32.547-62.739,68.412c0,25.171,13.622,47.208,33.873,59.163v193.155
	h-0.241c-13.064,0-23.692,10.629-23.692,23.693s10.629,23.693,23.692,23.693h94.944c13.065,0,23.694-10.629,23.694-23.693
	c0-12.717-10.19-23.693-23.934-23.693V235.611h8.35c6.924,6.448,14.902,11.378,23.529,14.653v246.735h-79.11
	c-4.142,0-7.5,3.357-7.5,7.5s3.358,7.5,7.5,7.5c15.09,0,130.421,0,146.376,0c4.143,0,7.5-3.357,7.5-7.5s-3.357-7.5-7.5-7.5H296.24
	V431.82c0-4.143-3.357-7.5-7.5-7.5c-4.143,0-7.5,3.357-7.5,7.5v65.179h-17.738V254.166c5.599,0.824,11.669,1.03,17.738,0.447
	c0,6.708,0,147.108,0,153.871c0,4.143,3.357,7.5,7.5,7.5c4.143,0,7.5-3.357,7.5-7.5v-37.425l63.784-63.786
	c14.979-14.983,4.317-40.746-16.879-40.746c-6.375,0-12.369,2.483-16.877,6.99l-30.028,30.029v-52.017
	c10.029-3.198,19.281-8.573,27.17-15.919h43.751c31.185,0,56.555-25.371,56.555-56.555
	C423.715,154.452,407.714,132.838,384.819,125.321z M225.554,442.958c0,4.793-3.9,8.693-8.694,8.693h-94.944
	c-4.792,0-8.692-3.899-8.692-8.693c0-4.793,3.899-8.693,8.692-8.693c9.657,0,85.293,0,94.944,0
	C221.653,434.264,225.554,438.165,225.554,442.958z M201.619,419.263h-64.461V232.714c12.756,3.854,20.131,2.896,64.461,2.896
	V419.263z M336.876,284.124c3.465-3.466,9.073-3.465,12.539,0.001c3.458,3.457,3.458,9.084,0.001,12.541l-53.176,53.178v-25.083
	L336.876,284.124z"/>
<g>
</g>
<g>
</g>
<g>
</g>
<g>
</g>
<g>
</g>
<g>
</g>
<g>
</g>
<g>
</g>
<g>
</g>
<g>
</g>
<g>
</g>
<g>
</g>
<g>
</g>
<g>
</g>
<g>
</g>
</svg>
